<svg xmlns="http://www.w3.org/2000/svg" width="640" height="400" viewBox="0 0 640 400">
  <defs>
    <linearGradient id="bg" x1="0%" y1="0%" x2="100%" y2="100%">
      <stop offset="0%" stop-color="#1a1410"/>
      <stop offset="100%" stop-color="#3d2818"/>
    </linearGradient>
    <linearGradient id="suit" x1="0%" y1="0%" x2="0%" y2="100%">
      <stop offset="0%" stop-color="#2a2a2a"/>
      <stop offset="100%" stop-color="#111"/>
    </linearGradient>
  </defs>
  <rect width="640" height="400" fill="url(#bg)"/>
  <ellipse cx="320" cy="430" rx="220" ry="200" fill="#0a0a0a" opacity="0.5"/>
  <ellipse cx="320" cy="175" rx="88" ry="100" fill="#c8956c"/>
  <path d="M230 280 L410 280 L430 400 L210 400 Z" fill="url(#suit)"/>
  <path d="M260 280 L280 220 L360 220 L380 280 Z" fill="#1a1a1a"/>
  <!-- phones -->
  <rect x="250" y="200" width="44" height="76" rx="6" fill="#111" stroke="#ff9652" stroke-width="2"/>
  <rect x="346" y="200" width="44" height="76" rx="6" fill="#111" stroke="#ff9652" stroke-width="2"/>
  <rect x="258" y="212" width="28" height="48" rx="2" fill="#222"/>
  <rect x="354" y="212" width="28" height="48" rx="2" fill="#222"/>
  <!-- fire badge -->
  <circle cx="320" cy="52" r="28" fill="white" opacity="0.95"/>
  <text x="320" y="64" text-anchor="middle" font-size="28">🔥</text>
</svg>
